# xmcd
#
# Track frame offsets: 
#        150
#        16465
#        28515
#        45957
#        62352
#        77462
#        96129
#        115597
#        129635
#        142475
#        157482
#        173347
#        185910
#        204905
#        216902
#        236990
#        248532
#        268430
#        284022
#        299397
#        319437
#
# Disc length: 4413 seconds
#
# Revision: 3
# Processed by: cddbd v1.5.1PL0 Copyright (c) Steve Scherf et al.
# Submitted via: ExactAudioCopy v0.95a5
#
DISCID=42113b15
DTITLE=Various Artist - Boot Scootin' 5
DYEAR=1900
DGENRE=Country
TTITLE0=Carlene Carter - I Love you 'Cause I Want To
TTITLE1=Alan Jackson - Lettle Bitty
TTITLE2=Garth Brooks - Friends In Love Places
TTITLE3=Tracy Lawrence - I See It Now
TTITLE4=Waylon Jennings - Luckenbach, texas (Back To The Basics Of Lov
TTITLE4=e)
TTITLE5=Shania Twain - Any Man Of Mine
TTITLE6=Restless Heart - I'll Still Be Loving you
TTITLE7=Perfect Stranger - Fire When Ready
TTITLE8=Clint Black - Killin' Time
TTITLE9=Reba McEntire - Take It Back
TTITLE10=John Berry - Your Love Amazes Me (Edit)
TTITLE11=Patsy Cline - Crazy
TTITLE12=Lonestar - No News (Dance Mix)
TTITLE13=Marty Stuart - Hillbilly Rock
TTITLE14=Gibson Miller Band - Texas Tattoo (Extended Version)
TTITLE15=Mel McDeaniel - Stand Up
TTITLE16=Pam Tillis - Cleopatra, Queen Of Denial (Club Mix)
TTITLE17=Billy Ray Cyrus - Achy Breaky Heart
TTITLE18=Sammy Kershaw - Third Rate Tomance
TTITLE19=Mary-Chapin Carpenter - Down At The Twist And Shout (Dance Mi
TTITLE19=x)
TTITLE20=George Strait - The Fireman
EXTD=
EXTT0=
EXTT1=
EXTT2=
EXTT3=
EXTT4=
EXTT5=
EXTT6=
EXTT7=
EXTT8=
EXTT9=
EXTT10=
EXTT11=
EXTT12=
EXTT13=
EXTT14=
EXTT15=
EXTT16=
EXTT17=
EXTT18=
EXTT19=
EXTT20=
PLAYORDER=
